@startuml
'https://plantuml.com/class-diagram

abstract class Employee {
    - firstName: String
    - lastName: String
    - socialSecurityNumber: String
    + getFirstName(): String
    + setFirstName(firstName: String): void
    + getLastName(): String
    + setLastName(lastName: String): void
    + getSocialSecurityNumber(): String
    + setSocialSecurityNumber(socialSecurityNumber: String): void
    + toString(): String
}

Employee <|-- SalariedEmployee
class SalariedEmployee {
    - weeklySalary: int
    + getWeeklySalary(): int
    + setWeeklySalary(weeklySalary: int): void
    + toString(): String
}

Employee <|-- HourlyEmployee
class HourlyEmployee {
    - wage: int
    - hoursWorked: int
    + getWage(): int
    + setWage(wage: int): void
    + getHoursWorked(): int
    + setHoursWorked(hoursWorked: int): void
    + toString(): String
}

Employee <|-- CommissionEmployee
class CommissionEmployee {
    - commissionRate: int
    - grossSales: int
    + getCommissionRate(): int
    + setCommissionRate(commissionRate: int): void
    + getGrossSales(): int
    + setGrossSales(grossSales: int): void
    + toString(): String
}

Employee <|-- BaseEmployee
class BaseEmployee {
    - baseSalary: int
    + getBaseSalary(): int
    + setBaseSalary(baseSalary: int): void
    + toString(): String
}

@enduml