@startuml
'https://plantuml.com/class-diagram

class Ship {
    # shipName: String
    # yearBuilt: String
    + getShipName(): String
    + setShipName(shipName: String): void
    + getYearBuilt(): String
    + setYearBuilt(yearBuilt: String): void
    + toString(): String
    + printShip(): void
}

Ship <|-- CargoShip
class CargoShip {
    ~ cargoCapacityInTonnage: int
    + getCargoCapacityInTonnage(): int
    + setCargoCapacityInTonnage(cargoCapacityInTonnage: int): void
    + toString(): String
}

Ship <|-- CruiseShip
class CruiseShip {
    ~ maxNumberPassengers: int
    + getMaxNumberPassengers(): int
    + setMaxNumberPassengers(maxNumberPassengers: int): void
    + toString(): String
}
@enduml